<svg xmlns="http://www.w3.org/2000/svg" viewBox="0 0 326.4 173.01"><defs><style>.cls-1{fill:#f2bbbf;}.cls-2{fill:#f27457;}.cls-3{fill:#f2f2f2;}</style></defs><g id="Layer_2" data-name="Layer 2"><g id="Layer_1-2" data-name="Layer 1"><g id="Top"><path class="cls-1" d="M326.36,54.34c.49,12.24-4.1,34.83-34.91,45.43-8.42,2.89-22,5.25-21.91,10.31.21,12.65,23.77,47.43,11.56,56.74-33,25.18-53.93-32-61.16-71.32-4.13-22.49-7.5-37.42-.71-59.22C226.84,11.83,253,6.84,272.14,7.77,313.39,9.23,324.87,16.59,326.36,54.34Zm-34.91,4.83c1.36-13.46-14.18-12.66-22.23-6.44s-10.45,24-4.84,25.19C274,80.05,289.83,75.1,291.45,59.17Z"/><path class="cls-2" d="M320.8,46.67c.48,12.25-4.11,34.84-34.92,45.43-8.41,2.9-22,5.26-21.91,10.31.22,12.65,23.77,47.44,11.57,56.74-33,25.19-53.94-32-61.16-71.32-4.14-22.48-7.51-37.41-.72-59.22C221.28,4.17,247.44-.83,266.58.1,307.82,1.56,319.31,8.92,320.8,46.67Zm-34.92,4.84c1.36-13.46-14.18-12.66-22.23-6.44s-10.45,24-4.83,25.19C268.46,72.38,284.27,67.43,285.88,51.51Z"/><path class="cls-3" d="M280.46,9.79a25.49,25.49,0,0,1,20,6.54,34.32,34.32,0,0,1,10.13,17.31,26.26,26.26,0,0,1,.61,10.06c-.3,1.89,2.59,2.7,2.89.8,2.19-14.22-6.79-30.21-20-35.77a27.72,27.72,0,0,0-13.63-1.94c-1.9.19-1.92,3.2,0,3Z"/><path class="cls-1" d="M228.88,91.23c-19-75.58-126.34-33.55-103.72,30.88C150.43,194.14,248,172.85,228.88,91.23Zm-36.45,17.7c-14.79-.37-14.78-22.05,0-22.42C207.22,86.88,207.22,108.56,192.43,108.93Z"/><path class="cls-2" d="M224.23,88c-19-75.58-126.33-33.55-103.72,30.88C145.78,190.92,243.36,169.63,224.23,88Zm-36.45,17.7c-14.79-.37-14.78-22,0-22.42C202.57,83.67,202.57,105.35,187.78,105.72Z"/><path class="cls-3" d="M215.27,132c3.71-5.26,5.49-11.63,6.25-17.95a65.35,65.35,0,0,0-1.12-21.19c-2.77-13.15-9.57-27.33-21.78-34.1a29.85,29.85,0,0,0-22.33-2.44,1.5,1.5,0,0,0,.8,2.89,26.81,26.81,0,0,1,18.42,1.32A34.25,34.25,0,0,1,209,72.75c7.47,11.2,10.75,25.51,9.74,38.87-.51,6.62-2.22,13.36-6.08,18.85-1.11,1.58,1.49,3.08,2.59,1.51Z"/><path class="cls-1" d="M59,74.5C61,61.6,39,71.82,29.63,71.06c-16.95,2-31.14-8.33-27.44-27.45,3.66-18.9,19.48-24.2,36.64-25.23,21.79-1.31,43.67-.92,65.52-1.55,16.9-.48,39.94-6.4,49.83,11.38C157.68,35.8,157.05,47.8,151,54c-15.46,16.9-39.65.94-44.83,14.59-4.35,11.44-2.26,23.07-.58,37.47,2.15,18.39,14.83,50.79-7.79,59.05C48.38,183.12,54.44,103.68,59,74.5Z"/><path class="cls-2" d="M57.35,71.33C52.48,59.22,37.41,68.65,28,67.89c-17,2-31.14-8.33-27.44-27.45,3.66-18.9,19.48-24.2,36.64-25.23C59,13.9,80.9,14.29,102.75,13.66c16.91-.48,39.94-6.4,49.83,11.39,3.5,7.58,2.87,19.58-3.18,25.74-15.46,16.9-39.65.94-44.83,14.59-4.35,11.45-2.26,23.07-.57,37.47,2.14,18.39,10.94,48.07-11.68,56.33C42.9,177.23,59.63,101,57.35,71.33Z"/><path class="cls-3" d="M131.71,21.56a11.41,11.41,0,0,1,10.89,5.11A14.32,14.32,0,0,1,144.45,39c-.59,1.84,2.31,2.63,2.9.8,3.22-10.06-4.38-22.49-15.64-21.24a1.53,1.53,0,0,0-1.5,1.5,1.51,1.51,0,0,0,1.5,1.5Z"/></g></g></g></svg>